<svg xmlns="http://www.w3.org/2000/svg" xmlns:xlink="http://www.w3.org/1999/xlink" width="500" zoomAndPan="magnify" viewBox="0 0 375 374.999991" height="500" preserveAspectRatio="xMidYMid meet" version="1.0"><defs><g/><clipPath id="b3d8c2ab96"><path d="M 216 215 L 367.5 215 L 367.5 375 L 216 375 Z M 216 215 " clip-rule="nonzero"/></clipPath></defs><path fill="#00aeef" d="M 271.925781 52.089844 C 271.601562 52.089844 270.957031 52.089844 270.636719 52.089844 C 268.382812 51.765625 266.773438 50.15625 266.132812 47.90625 C 265.167969 45.652344 262.269531 40.507812 259.050781 39.863281 C 248.109375 37.933594 242.960938 28.28125 241.996094 22.8125 C 241.351562 20.5625 241.996094 18.308594 243.605469 16.699219 L 258.085938 2.222656 C 259.695312 0.617188 262.269531 -0.0273438 264.523438 0.617188 C 266.773438 1.257812 268.382812 3.1875 269.027344 5.441406 C 269.027344 5.441406 270.636719 12.195312 275.464844 12.519531 C 287.371094 13.804688 292.519531 27.316406 292.839844 28.925781 C 293.484375 31.175781 293.164062 33.75 291.234375 35.679688 L 276.75 50.15625 C 275.140625 51.445312 273.535156 52.089844 271.925781 52.089844 Z M 255.511719 23.136719 C 256.476562 24.742188 258.410156 26.671875 261.304688 27.316406 C 266.773438 28.28125 270.957031 31.820312 273.535156 35.359375 L 279.003906 29.890625 C 277.714844 27.960938 275.785156 25.707031 273.855469 25.386719 C 267.742188 24.742188 263.558594 21.527344 260.660156 17.667969 Z M 255.511719 23.136719 " fill-opacity="1" fill-rule="nonzero"/><path fill="#00aeef" d="M 144.8125 73 C 143.847656 73 143.203125 72.675781 142.238281 72.355469 C 139.019531 71.070312 137.410156 67.207031 139.019531 63.992188 C 140.628906 60.132812 142.882812 56.914062 145.777344 54.019531 C 148.351562 51.445312 152.214844 51.445312 154.789062 53.695312 C 157.363281 56.269531 157.363281 60.132812 155.109375 62.703125 C 153.5 64.632812 151.890625 66.566406 150.925781 68.816406 C 149.960938 71.710938 147.386719 73 144.8125 73 Z M 144.8125 73 " fill-opacity="1" fill-rule="nonzero"/><path fill="#00aeef" d="M 200.160156 132.835938 C 198.230469 132.835938 196.300781 131.871094 195.011719 130.261719 C 192.761719 127.367188 193.402344 123.507812 196.300781 121.253906 C 197.265625 120.289062 198.230469 119.324219 198.554688 118.039062 C 199.519531 114.5 203.058594 112.570312 206.597656 113.855469 C 210.136719 114.820312 212.070312 118.359375 210.78125 121.898438 C 209.496094 125.757812 207.242188 129.296875 203.703125 131.871094 C 203.058594 132.515625 201.449219 132.835938 200.160156 132.835938 Z M 200.160156 132.835938 " fill-opacity="1" fill-rule="nonzero"/><path fill="#00aeef" d="M 61.144531 319.101562 C 58.890625 319.101562 56.960938 318.136719 55.671875 316.207031 C 53.742188 313.3125 54.707031 309.128906 57.601562 307.199219 C 58.566406 306.554688 59.535156 305.914062 60.5 305.269531 C 63.71875 303.339844 67.578125 304.625 69.1875 307.519531 C 71.117188 310.738281 69.832031 314.597656 66.933594 316.207031 C 65.96875 316.851562 65.328125 317.171875 64.359375 317.816406 C 63.394531 318.78125 62.429688 319.101562 61.144531 319.101562 Z M 61.144531 319.101562 " fill-opacity="1" fill-rule="nonzero"/><path fill="#00aeef" d="M 81.738281 310.09375 C 78.84375 310.09375 76.265625 308.164062 75.625 305.269531 C 74.660156 301.730469 76.589844 298.191406 80.128906 297.226562 C 82.058594 296.582031 83.992188 296.261719 85.921875 295.617188 C 89.460938 294.972656 92.679688 296.90625 93.644531 300.441406 C 94.289062 303.980469 92.359375 307.199219 88.816406 308.164062 C 87.207031 308.484375 85.601562 308.808594 83.667969 309.449219 C 83.023438 309.773438 82.382812 310.09375 81.738281 310.09375 Z M 137.089844 310.09375 C 136.445312 310.09375 135.800781 310.09375 135.480469 309.773438 C 133.871094 309.449219 132.261719 308.808594 130.332031 308.484375 C 126.789062 307.84375 124.539062 304.304688 125.503906 300.765625 C 126.148438 297.226562 129.6875 294.972656 133.226562 295.9375 C 135.15625 296.261719 137.089844 296.90625 139.019531 297.546875 C 142.558594 298.511719 144.488281 302.050781 143.523438 305.589844 C 142.238281 308.164062 139.664062 310.09375 137.089844 310.09375 Z M 112.308594 306.234375 C 111.988281 306.234375 111.988281 306.234375 112.308594 306.234375 C 111.023438 306.234375 110.378906 306.234375 109.414062 306.234375 C 108.769531 306.234375 107.804688 306.234375 107.160156 306.234375 C 107.160156 306.234375 107.160156 306.234375 106.839844 306.234375 C 103.300781 306.234375 100.402344 303.339844 100.402344 300.121094 C 100.402344 296.582031 102.976562 293.6875 106.515625 293.367188 C 107.484375 293.367188 108.449219 293.367188 109.414062 293.367188 C 110.378906 293.367188 111.34375 293.367188 112.308594 293.367188 C 115.847656 293.367188 118.746094 296.261719 118.425781 300.121094 C 118.421875 303.660156 115.527344 306.234375 112.308594 306.234375 Z M 112.308594 306.234375 " fill-opacity="1" fill-rule="nonzero"/><path fill="#00aeef" d="M 157.683594 319.101562 C 156.398438 319.101562 155.429688 318.78125 154.144531 318.136719 C 153.179688 317.492188 152.535156 317.171875 151.570312 316.527344 C 148.351562 314.597656 147.386719 310.738281 149.316406 307.84375 C 151.246094 304.625 155.109375 303.660156 158.003906 305.589844 C 158.972656 306.234375 159.9375 306.878906 160.902344 307.519531 C 163.796875 309.449219 164.761719 313.3125 162.832031 316.527344 C 161.867188 318.136719 159.9375 319.101562 157.683594 319.101562 Z M 157.683594 319.101562 " fill-opacity="1" fill-rule="nonzero"/><path fill="#ffce32" d="M 204.988281 231.597656 L 174.417969 231.597656 C 169.914062 231.597656 166.371094 228.058594 166.050781 223.554688 C 142.558594 213.90625 127.113281 190.742188 127.113281 165.007812 C 127.113281 162.753906 129.042969 160.824219 131.296875 160.824219 L 247.789062 160.824219 C 250.042969 160.824219 251.972656 162.753906 251.972656 165.007812 C 251.972656 190.742188 236.527344 213.90625 213.035156 223.554688 C 213.355469 228.058594 209.496094 231.597656 204.988281 231.597656 Z M 204.988281 231.597656 " fill-opacity="1" fill-rule="nonzero"/><path fill="#231f20" d="M 50.84375 387.945312 C 49.558594 388.269531 48.59375 388.589844 47.304688 388.910156 C 34.753906 392.773438 22.847656 396.632812 14.160156 399.527344 C 14.160156 399.527344 13.835938 399.527344 13.515625 399.527344 C 13.195312 399.527344 13.195312 399.207031 13.195312 398.5625 L 13.195312 230.632812 C 13.195312 230.3125 13.515625 229.667969 13.835938 229.667969 C 14.480469 229.347656 15.445312 229.023438 16.410156 228.703125 L 16.410156 215.191406 C 13.835938 216.15625 11.261719 216.800781 9.652344 217.445312 C 3.863281 219.375 0 224.84375 0 230.632812 L 0 398.5625 C 0 403.066406 2.253906 407.25 5.792969 409.824219 C 8.046875 411.429688 10.941406 412.394531 13.835938 412.394531 C 15.445312 412.394531 16.734375 412.074219 18.34375 411.753906 C 35.71875 405.960938 78.199219 391.808594 102.976562 389.554688 C 119.710938 387.945312 136.445312 386.980469 150.28125 386.660156 C 137.410156 381.835938 122.285156 377.332031 109.414062 377.332031 C 88.496094 377.007812 63.71875 383.765625 50.84375 387.945312 Z M 50.84375 387.945312 " fill-opacity="1" fill-rule="nonzero"/><g clip-path="url(#b3d8c2ab96)"><path fill="#231f20" d="M 357.523438 217.445312 C 355.59375 216.800781 353.339844 216.15625 350.765625 215.191406 L 350.765625 228.703125 C 351.730469 229.023438 352.695312 229.347656 353.339844 229.667969 C 353.664062 229.667969 353.984375 230.3125 353.984375 230.632812 L 353.984375 398.5625 C 353.984375 398.882812 353.664062 399.207031 353.664062 399.527344 C 353.339844 399.851562 353.019531 399.527344 353.019531 399.527344 C 344.332031 396.632812 332.421875 392.449219 319.871094 388.910156 C 318.585938 388.589844 317.621094 388.589844 316.332031 387.945312 C 303.460938 383.765625 278.359375 377.007812 257.765625 377.007812 C 244.894531 377.007812 229.769531 381.511719 216.894531 386.339844 C 230.734375 386.980469 247.789062 387.625 264.523438 389.234375 C 289.300781 391.484375 331.78125 405.640625 349.15625 411.429688 C 350.765625 412.074219 352.054688 412.074219 353.664062 412.074219 C 356.558594 412.074219 359.132812 411.109375 361.707031 409.5 C 365.246094 406.925781 367.5 402.746094 367.5 398.242188 L 367.5 230.632812 C 366.855469 224.84375 362.996094 219.375 357.523438 217.445312 Z M 357.523438 217.445312 " fill-opacity="1" fill-rule="nonzero"/></g><path fill="#231f20" d="M 186.644531 386.015625 C 186.96875 385.695312 226.226562 364.460938 257.441406 364.460938 C 279.96875 364.460938 306.355469 371.539062 319.871094 376.042969 C 324.054688 377.332031 328.5625 376.6875 332.101562 374.113281 C 335.640625 371.539062 337.894531 367.359375 337.894531 362.855469 L 337.894531 201.035156 C 337.894531 195.246094 334.03125 189.777344 328.5625 187.847656 C 320.515625 184.953125 303.78125 179.484375 284.152344 176.585938 C 282.867188 180.769531 281.257812 184.953125 279.324219 188.8125 C 298.957031 191.707031 316.332031 197.175781 324.378906 200.070312 C 324.699219 200.070312 325.023438 200.714844 325.023438 201.035156 L 325.023438 362.53125 C 325.023438 362.855469 324.699219 363.175781 324.699219 363.496094 C 324.378906 363.820312 324.054688 363.496094 324.054688 363.496094 C 309.574219 358.992188 281.898438 351.59375 257.765625 351.59375 C 232.664062 351.59375 204.667969 363.175781 190.1875 369.929688 L 190.1875 257.976562 L 177.3125 257.976562 L 177.3125 369.929688 C 162.832031 363.175781 134.835938 351.59375 109.734375 351.59375 C 85.601562 351.59375 57.601562 358.992188 43.445312 363.496094 C 43.445312 363.496094 43.121094 363.496094 42.800781 363.496094 C 42.476562 363.496094 42.476562 363.175781 42.476562 362.53125 L 42.476562 201.035156 C 42.476562 200.714844 42.800781 200.070312 43.121094 200.070312 C 50.203125 197.5 65.003906 192.671875 82.058594 189.777344 C 80.128906 185.917969 78.519531 181.734375 77.234375 177.550781 C 60.175781 180.769531 46.019531 185.273438 38.9375 187.847656 C 33.46875 189.777344 29.605469 194.925781 29.605469 201.035156 L 29.605469 362.53125 C 29.605469 367.035156 31.859375 371.21875 35.398438 373.792969 C 38.9375 376.367188 43.445312 377.007812 47.628906 375.722656 C 60.5 371.539062 86.886719 364.140625 109.414062 364.140625 C 140.628906 364.140625 179.886719 385.695312 180.210938 385.695312 C 180.53125 386.015625 180.855469 386.015625 181.175781 386.015625 C 181.496094 386.015625 181.496094 386.015625 181.820312 386.339844 C 182.460938 386.339844 182.785156 386.660156 183.429688 386.660156 C 184.070312 386.660156 184.394531 386.660156 185.039062 386.339844 C 185.359375 386.339844 185.359375 386.339844 185.679688 386.015625 C 186.003906 386.015625 186.324219 386.015625 186.644531 386.015625 Z M 186.644531 386.015625 " fill-opacity="1" fill-rule="nonzero"/><path fill="#231f20" d="M 205.953125 84.257812 C 225.585938 84.257812 241.351562 68.496094 241.351562 48.871094 C 241.351562 29.246094 225.585938 13.484375 205.953125 13.484375 C 186.324219 13.484375 170.554688 29.246094 170.554688 48.871094 C 170.554688 68.496094 186.324219 84.257812 205.953125 84.257812 Z M 228.480469 48.871094 C 228.480469 50.480469 228.160156 52.410156 227.835938 54.019531 L 218.828125 48.871094 L 227.835938 43.722656 C 228.160156 45.332031 228.480469 47.261719 228.480469 48.871094 Z M 199.519531 70.425781 C 195.980469 69.460938 193.082031 67.53125 190.507812 65.277344 L 199.519531 60.132812 Z M 212.390625 59.808594 L 221.402344 64.957031 C 218.828125 67.53125 215.609375 69.136719 212.390625 70.105469 Z M 212.390625 37.933594 L 212.390625 27.316406 C 215.929688 28.28125 218.828125 30.210938 221.402344 32.464844 Z M 199.519531 37.933594 L 190.507812 32.785156 C 193.082031 30.210938 195.980469 28.28125 199.519531 27.316406 Z M 193.082031 48.871094 L 184.070312 54.019531 C 183.75 52.410156 183.429688 50.800781 183.429688 48.871094 C 183.429688 46.941406 183.75 45.332031 184.070312 43.722656 Z M 193.082031 48.871094 " fill-opacity="1" fill-rule="nonzero"/><path fill="#231f20" d="M 83.667969 84.257812 C 83.667969 93.265625 90.75 100.34375 99.757812 100.34375 C 108.769531 100.34375 115.847656 93.265625 115.847656 84.257812 C 115.847656 75.25 108.769531 68.171875 99.757812 68.171875 C 90.75 68.171875 83.667969 75.25 83.667969 84.257812 Z M 99.757812 81.042969 C 101.691406 81.042969 102.976562 82.328125 102.976562 84.257812 C 102.976562 86.1875 101.691406 87.476562 99.757812 87.476562 C 97.828125 87.476562 96.542969 86.1875 96.542969 84.257812 C 96.542969 82.328125 97.828125 81.042969 99.757812 81.042969 Z M 99.757812 81.042969 " fill-opacity="1" fill-rule="nonzero"/><path fill="#231f20" d="M 218.828125 113.210938 C 218.828125 122.21875 225.90625 129.296875 234.917969 129.296875 C 243.925781 129.296875 251.007812 122.21875 251.007812 113.210938 C 251.007812 104.203125 243.925781 97.125 234.917969 97.125 C 225.90625 97.125 218.828125 104.203125 218.828125 113.210938 Z M 238.136719 113.210938 C 238.136719 115.140625 236.847656 116.429688 234.917969 116.429688 C 232.984375 116.429688 231.699219 115.140625 231.699219 113.210938 C 231.699219 111.28125 232.984375 109.996094 234.917969 109.996094 C 236.847656 109.996094 238.136719 111.28125 238.136719 113.210938 Z M 238.136719 113.210938 " fill-opacity="1" fill-rule="nonzero"/><path fill="#231f20" d="M 128.722656 52.089844 C 142.882812 52.089844 154.464844 40.507812 154.464844 26.351562 C 154.464844 12.195312 142.882812 0.617188 128.722656 0.617188 C 114.5625 0.617188 102.976562 12.195312 102.976562 26.351562 C 102.976562 40.507812 114.5625 52.089844 128.722656 52.089844 Z M 128.722656 13.484375 C 135.800781 13.484375 141.59375 19.273438 141.59375 26.351562 C 141.59375 33.429688 135.800781 39.21875 128.722656 39.21875 C 121.640625 39.21875 115.847656 33.429688 115.847656 26.351562 C 115.847656 19.273438 121.640625 13.484375 128.722656 13.484375 Z M 128.722656 13.484375 " fill-opacity="1" fill-rule="nonzero"/><path fill="#231f20" d="M 124.652344 25.003906 C 124.953125 25.308594 125.1875 25.65625 125.347656 26.050781 C 125.511719 26.441406 125.59375 26.851562 125.59375 27.28125 C 125.59375 27.707031 125.511719 28.117188 125.347656 28.511719 C 125.1875 28.90625 124.953125 29.253906 124.652344 29.554688 C 124.351562 29.855469 124 30.089844 123.609375 30.253906 C 123.214844 30.414062 122.800781 30.496094 122.375 30.496094 C 121.949219 30.496094 121.539062 30.414062 121.144531 30.253906 C 120.75 30.089844 120.402344 29.855469 120.101562 29.554688 C 119.796875 29.253906 119.566406 28.90625 119.402344 28.511719 C 119.238281 28.117188 119.15625 27.707031 119.15625 27.28125 C 119.15625 26.851562 119.238281 26.441406 119.402344 26.050781 C 119.566406 25.65625 119.796875 25.308594 120.101562 25.003906 C 120.402344 24.703125 120.75 24.472656 121.144531 24.308594 C 121.539062 24.144531 121.949219 24.0625 122.375 24.0625 C 122.800781 24.0625 123.214844 24.144531 123.609375 24.308594 C 124 24.472656 124.351562 24.703125 124.652344 25.003906 Z M 124.652344 25.003906 " fill-opacity="1" fill-rule="nonzero"/><path fill="#231f20" d="M 134.320312 29.558594 C 134.621094 29.859375 134.851562 30.207031 135.015625 30.601562 C 135.179688 30.996094 135.261719 31.40625 135.261719 31.832031 C 135.261719 32.261719 135.179688 32.671875 135.015625 33.066406 C 134.851562 33.460938 134.621094 33.808594 134.320312 34.109375 C 134.015625 34.410156 133.667969 34.644531 133.273438 34.804688 C 132.882812 34.96875 132.46875 35.050781 132.042969 35.050781 C 131.617188 35.050781 131.207031 34.96875 130.8125 34.804688 C 130.417969 34.644531 130.070312 34.410156 129.769531 34.109375 C 129.464844 33.808594 129.234375 33.460938 129.070312 33.066406 C 128.90625 32.671875 128.824219 32.261719 128.824219 31.832031 C 128.824219 31.40625 128.90625 30.996094 129.070312 30.601562 C 129.234375 30.207031 129.464844 29.859375 129.769531 29.558594 C 130.070312 29.257812 130.417969 29.023438 130.8125 28.863281 C 131.207031 28.699219 131.617188 28.617188 132.042969 28.617188 C 132.46875 28.617188 132.882812 28.699219 133.273438 28.863281 C 133.667969 29.023438 134.015625 29.257812 134.320312 29.558594 Z M 134.320312 29.558594 " fill-opacity="1" fill-rule="nonzero"/><path fill="#231f20" d="M 134.328125 18.617188 C 134.628906 18.921875 134.859375 19.269531 135.023438 19.660156 C 135.1875 20.054688 135.269531 20.464844 135.269531 20.894531 C 135.269531 21.320312 135.1875 21.730469 135.023438 22.125 C 134.859375 22.519531 134.628906 22.867188 134.328125 23.167969 C 134.023438 23.46875 133.675781 23.703125 133.28125 23.867188 C 132.886719 24.027344 132.476562 24.109375 132.050781 24.109375 C 131.625 24.109375 131.214844 24.027344 130.820312 23.867188 C 130.425781 23.703125 130.078125 23.46875 129.773438 23.167969 C 129.472656 22.867188 129.242188 22.519531 129.078125 22.125 C 128.914062 21.730469 128.832031 21.320312 128.832031 20.894531 C 128.832031 20.464844 128.914062 20.054688 129.078125 19.660156 C 129.242188 19.269531 129.472656 18.921875 129.773438 18.617188 C 130.078125 18.316406 130.425781 18.085938 130.820312 17.921875 C 131.214844 17.757812 131.625 17.675781 132.050781 17.675781 C 132.476562 17.675781 132.886719 17.757812 133.28125 17.921875 C 133.675781 18.085938 134.023438 18.316406 134.328125 18.617188 Z M 134.328125 18.617188 " fill-opacity="1" fill-rule="nonzero"/><path fill="#231f20" d="M 139.339844 87.152344 C 136.445312 91.65625 133.546875 101.628906 139.339844 110.316406 C 140.949219 112.890625 139.664062 118.039062 138.699219 119.96875 C 137.730469 121.898438 138.054688 124.148438 139.019531 126.082031 C 140.304688 128.011719 142.238281 128.976562 144.488281 128.976562 L 163.796875 128.976562 C 166.371094 128.976562 168.625 127.6875 169.589844 125.4375 C 170.234375 124.148438 176.027344 111.601562 168.945312 102.597656 C 166.371094 99.378906 169.269531 93.910156 169.269531 93.910156 C 170.554688 91.980469 170.554688 89.40625 169.269531 87.476562 C 167.980469 85.546875 166.050781 84.257812 163.796875 84.257812 L 144.488281 84.257812 C 142.558594 84.257812 140.628906 85.546875 139.339844 87.152344 Z M 148.996094 97.125 L 155.109375 97.125 C 154.789062 101.628906 155.429688 106.457031 158.972656 110.636719 C 159.9375 111.925781 159.9375 114.175781 159.292969 116.429688 L 152.855469 116.429688 C 153.179688 112.246094 152.855469 107.421875 149.960938 103.238281 C 148.671875 100.988281 148.671875 98.734375 148.996094 97.125 Z M 148.996094 97.125 " fill-opacity="1" fill-rule="nonzero"/><path fill="#231f20" d="M 107.484375 125.4375 C 108.125 125.4375 108.449219 125.4375 109.089844 125.113281 C 111.988281 124.472656 113.917969 122.21875 113.917969 119.324219 C 116.171875 117.714844 117.457031 115.140625 116.492188 112.246094 C 115.527344 108.707031 111.988281 106.777344 108.449219 107.742188 C 103.300781 109.03125 99.757812 114.820312 101.046875 120.289062 C 101.691406 123.507812 104.585938 125.4375 107.484375 125.4375 Z M 107.484375 125.4375 " fill-opacity="1" fill-rule="nonzero"/><path fill="#231f20" d="M 79.484375 48.226562 C 80.773438 49.515625 82.382812 50.480469 84.3125 50.480469 C 85.921875 50.480469 87.207031 49.835938 88.496094 48.871094 C 91.070312 46.621094 91.390625 42.4375 89.140625 39.863281 C 87.53125 38.253906 86.566406 36.003906 86.242188 33.429688 C 85.601562 29.890625 82.382812 27.640625 78.84375 27.960938 C 75.300781 28.605469 73.050781 31.820312 73.371094 35.359375 C 74.335938 40.183594 76.589844 44.6875 79.484375 48.226562 Z M 79.484375 48.226562 " fill-opacity="1" fill-rule="nonzero"/><path fill="#231f20" d="M 264.84375 87.476562 C 266.132812 87.476562 267.417969 87.152344 268.707031 86.1875 C 271.925781 83.617188 274.5 80.078125 275.785156 76.214844 C 276.75 72.675781 274.820312 69.136719 271.601562 68.171875 C 268.0625 67.207031 264.523438 69.136719 263.558594 72.355469 C 263.234375 73.640625 262.269531 74.929688 261.304688 75.574219 C 258.410156 77.824219 257.765625 81.683594 260.015625 84.582031 C 260.984375 86.832031 262.914062 87.476562 264.84375 87.476562 Z M 264.84375 87.476562 " fill-opacity="1" fill-rule="nonzero"/><path fill="#231f20" d="M 60.820312 260.550781 C 59.855469 261.195312 58.890625 261.839844 57.925781 262.480469 C 55.027344 264.414062 54.0625 268.273438 55.992188 271.488281 C 57.28125 273.421875 59.210938 274.386719 61.464844 274.386719 C 62.75 274.386719 63.71875 274.0625 65.003906 273.421875 C 65.96875 272.777344 66.613281 272.457031 67.578125 271.8125 C 70.796875 269.882812 71.761719 266.019531 69.832031 263.125 C 67.578125 259.585938 63.71875 258.621094 60.820312 260.550781 Z M 60.820312 260.550781 " fill-opacity="1" fill-rule="nonzero"/><path fill="#231f20" d="M 132.90625 250.902344 C 129.363281 250.257812 126.148438 252.1875 125.183594 255.726562 C 124.539062 259.265625 126.46875 262.480469 130.007812 263.449219 C 131.617188 263.769531 133.226562 264.089844 135.15625 264.734375 C 135.800781 265.054688 136.445312 265.054688 136.765625 265.054688 C 139.664062 265.054688 142.238281 263.125 142.882812 260.230469 C 143.847656 256.691406 141.914062 253.152344 138.375 252.1875 C 136.765625 251.867188 134.835938 251.222656 132.90625 250.902344 Z M 132.90625 250.902344 " fill-opacity="1" fill-rule="nonzero"/><path fill="#231f20" d="M 85.921875 250.902344 C 83.992188 251.222656 82.058594 251.867188 80.128906 252.507812 C 76.589844 253.476562 74.660156 257.011719 75.625 260.550781 C 76.589844 263.449219 79.164062 265.378906 81.738281 265.378906 C 82.382812 265.378906 83.027344 265.378906 83.347656 265.054688 C 84.957031 264.734375 86.566406 264.089844 88.496094 263.769531 C 92.035156 263.125 94.289062 259.585938 93.324219 256.046875 C 92.679688 252.1875 89.460938 249.9375 85.921875 250.902344 Z M 85.921875 250.902344 " fill-opacity="1" fill-rule="nonzero"/><path fill="#231f20" d="M 109.414062 248.328125 C 108.449219 248.328125 107.484375 248.328125 106.515625 248.328125 C 102.976562 248.328125 100.082031 251.222656 100.402344 255.082031 C 100.402344 258.621094 103.621094 261.515625 107.160156 261.195312 C 107.804688 261.195312 108.769531 261.195312 109.414062 261.195312 C 110.378906 261.195312 111.34375 261.195312 112.308594 261.195312 C 112.308594 261.195312 112.308594 261.195312 112.632812 261.195312 C 116.171875 261.195312 119.066406 258.300781 119.066406 255.082031 C 119.066406 251.542969 116.492188 248.648438 112.953125 248.328125 C 111.34375 248.328125 110.378906 248.328125 109.414062 248.328125 Z M 109.414062 248.328125 " fill-opacity="1" fill-rule="nonzero"/><path fill="#231f20" d="M 158.003906 260.550781 C 154.789062 258.621094 150.925781 259.910156 149.316406 262.804688 C 147.386719 266.019531 148.671875 269.882812 151.570312 271.488281 C 152.535156 272.132812 153.179688 272.457031 154.144531 273.097656 C 155.109375 273.742188 156.398438 274.0625 157.683594 274.0625 C 159.9375 274.0625 161.867188 273.097656 163.15625 271.167969 C 165.085938 268.273438 164.121094 264.089844 161.222656 262.160156 C 160.257812 261.515625 159.292969 260.875 158.003906 260.550781 Z M 158.003906 260.550781 " fill-opacity="1" fill-rule="nonzero"/><path fill="#231f20" d="M 217.539062 262.804688 C 215.609375 259.585938 211.746094 258.621094 208.851562 260.550781 C 207.886719 261.195312 206.917969 261.839844 205.953125 262.480469 C 203.058594 264.414062 202.09375 268.273438 204.023438 271.488281 C 205.3125 273.421875 207.242188 274.386719 209.496094 274.386719 C 210.78125 274.386719 211.746094 274.0625 213.035156 273.421875 C 214 272.777344 214.644531 272.457031 215.609375 271.8125 C 218.183594 269.882812 219.148438 265.699219 217.539062 262.804688 Z M 217.539062 262.804688 " fill-opacity="1" fill-rule="nonzero"/><path fill="#231f20" d="M 241.675781 255.726562 C 241.03125 252.1875 237.492188 249.9375 233.953125 250.902344 C 232.019531 251.222656 230.089844 251.867188 228.160156 252.507812 C 224.617188 253.476562 222.6875 257.011719 223.652344 260.550781 C 224.617188 263.449219 227.195312 265.378906 229.769531 265.378906 C 230.410156 265.378906 231.054688 265.378906 231.375 265.054688 C 232.984375 264.734375 234.59375 264.089844 236.527344 263.769531 C 240.066406 262.804688 242.316406 259.265625 241.675781 255.726562 Z M 241.675781 255.726562 " fill-opacity="1" fill-rule="nonzero"/><path fill="#231f20" d="M 286.726562 252.1875 C 284.796875 251.542969 282.867188 251.222656 280.933594 250.578125 C 277.394531 249.9375 274.175781 251.867188 273.210938 255.40625 C 272.566406 258.945312 274.5 262.160156 278.039062 263.125 C 279.648438 263.449219 281.257812 263.769531 283.1875 264.414062 C 283.832031 264.734375 284.472656 264.734375 284.796875 264.734375 C 287.691406 264.734375 290.265625 262.804688 290.910156 259.910156 C 292.199219 256.691406 290.265625 253.152344 286.726562 252.1875 Z M 286.726562 252.1875 " fill-opacity="1" fill-rule="nonzero"/><path fill="#231f20" d="M 260.339844 248.328125 C 259.375 248.328125 258.410156 248.328125 257.441406 248.328125 C 256.476562 248.328125 255.511719 248.328125 254.546875 248.328125 C 251.007812 248.328125 248.109375 251.222656 248.433594 255.082031 C 248.433594 258.621094 251.652344 261.515625 255.191406 261.195312 C 255.835938 261.195312 256.800781 261.195312 257.441406 261.195312 C 258.410156 261.195312 259.375 261.195312 260.339844 261.195312 C 260.339844 261.195312 260.339844 261.195312 260.660156 261.195312 C 264.199219 261.195312 267.097656 258.300781 267.097656 255.082031 C 266.773438 251.542969 263.878906 248.328125 260.339844 248.328125 Z M 260.339844 248.328125 " fill-opacity="1" fill-rule="nonzero"/><path fill="#231f20" d="M 299.597656 271.488281 C 300.566406 272.132812 301.207031 272.457031 302.171875 273.097656 C 303.140625 273.742188 304.425781 274.0625 305.714844 274.0625 C 307.964844 274.0625 309.898438 273.097656 311.183594 271.167969 C 313.113281 268.273438 312.148438 264.089844 309.253906 262.160156 C 308.289062 261.515625 307.324219 260.875 306.355469 260.230469 C 303.140625 258.300781 299.277344 259.585938 297.667969 262.480469 C 295.738281 265.699219 296.703125 269.882812 299.597656 271.488281 Z M 299.597656 271.488281 " fill-opacity="1" fill-rule="nonzero"/><path fill="#231f20" d="M 208.851562 305.589844 C 207.886719 306.234375 206.917969 306.878906 205.953125 307.519531 C 203.058594 309.449219 202.09375 313.3125 204.023438 316.527344 C 205.3125 318.457031 207.242188 319.421875 209.496094 319.421875 C 210.78125 319.421875 211.746094 319.101562 213.035156 318.457031 C 214 317.816406 214.644531 317.492188 215.609375 316.851562 C 218.828125 314.921875 219.792969 311.058594 217.859375 308.164062 C 215.609375 304.625 211.746094 303.660156 208.851562 305.589844 Z M 208.851562 305.589844 " fill-opacity="1" fill-rule="nonzero"/><path fill="#231f20" d="M 233.953125 295.9375 C 232.019531 296.261719 230.089844 296.90625 228.160156 297.546875 C 224.617188 298.511719 222.6875 302.050781 223.652344 305.589844 C 224.617188 308.484375 227.195312 310.417969 229.769531 310.417969 C 230.410156 310.417969 231.054688 310.417969 231.375 310.09375 C 232.984375 309.773438 234.59375 309.128906 236.527344 308.808594 C 240.066406 308.164062 242.316406 304.625 241.351562 301.085938 C 240.710938 297.226562 237.492188 294.972656 233.953125 295.9375 Z M 233.953125 295.9375 " fill-opacity="1" fill-rule="nonzero"/><path fill="#231f20" d="M 257.441406 293.367188 C 256.476562 293.367188 255.511719 293.367188 254.546875 293.367188 C 251.007812 293.367188 248.109375 296.261719 248.433594 300.121094 C 248.433594 303.660156 251.328125 306.234375 254.867188 306.234375 C 254.867188 306.234375 254.867188 306.234375 255.191406 306.234375 C 255.835938 306.234375 256.800781 306.234375 257.441406 306.234375 C 258.410156 306.234375 259.375 306.234375 260.339844 306.234375 C 260.339844 306.234375 260.339844 306.234375 260.660156 306.234375 C 264.199219 306.234375 267.097656 303.339844 267.097656 300.121094 C 267.097656 296.582031 264.523438 293.6875 260.984375 293.367188 C 259.375 293.367188 258.410156 293.367188 257.441406 293.367188 Z M 257.441406 293.367188 " fill-opacity="1" fill-rule="nonzero"/><path fill="#231f20" d="M 286.726562 297.226562 C 284.796875 296.582031 282.867188 296.261719 280.933594 295.617188 C 277.394531 294.972656 274.175781 296.90625 273.210938 300.441406 C 272.566406 303.980469 274.5 307.199219 278.039062 308.164062 C 279.648438 308.484375 281.257812 308.808594 283.1875 309.449219 C 283.832031 309.773438 284.472656 309.773438 284.796875 309.773438 C 287.691406 309.773438 290.265625 307.84375 290.910156 304.945312 C 292.199219 301.730469 290.265625 298.191406 286.726562 297.226562 Z M 286.726562 297.226562 " fill-opacity="1" fill-rule="nonzero"/><path fill="#231f20" d="M 299.597656 316.527344 C 300.566406 317.171875 301.207031 317.492188 302.171875 318.136719 C 303.140625 318.78125 304.425781 319.101562 305.714844 319.101562 C 307.964844 319.101562 309.898438 318.136719 311.183594 316.207031 C 313.113281 313.3125 312.148438 309.128906 309.253906 307.199219 C 308.289062 306.554688 307.324219 305.914062 306.355469 305.269531 C 303.140625 303.339844 299.277344 304.625 297.667969 307.519531 C 295.738281 310.738281 296.703125 314.917969 299.597656 316.527344 Z M 299.597656 316.527344 " fill-opacity="1" fill-rule="nonzero"/><path fill="#231f20" d="M 270.316406 135.730469 L 90.105469 135.730469 C 86.566406 135.730469 83.667969 138.625 83.667969 142.164062 C 83.667969 182.054688 107.484375 217.765625 143.847656 232.886719 C 144.167969 239.640625 149.960938 245.109375 156.71875 245.109375 L 204.023438 245.109375 C 210.78125 245.109375 216.574219 239.640625 216.894531 232.886719 C 252.9375 217.765625 276.75 182.054688 276.75 142.164062 C 276.75 138.625 273.855469 135.730469 270.316406 135.730469 Z M 208.207031 222.269531 C 205.632812 223.234375 204.023438 225.488281 204.023438 228.382812 L 204.023438 232.242188 L 156.71875 232.242188 L 156.71875 228.382812 C 156.71875 225.808594 155.109375 223.234375 152.535156 222.269531 C 121 211.007812 99.117188 182.054688 96.863281 148.597656 L 263.878906 148.597656 C 261.304688 182.054688 239.421875 211.007812 208.207031 222.269531 Z M 208.207031 222.269531 " fill-opacity="1" fill-rule="nonzero"/><path fill="#231f20" d="M 108.769531 170.152344 C 115.527344 188.8125 134.191406 207.148438 151.570312 212.617188 C 152.214844 212.941406 152.855469 212.941406 153.5 212.941406 C 156.074219 212.941406 158.648438 211.332031 159.613281 208.4375 C 160.582031 204.898438 158.648438 201.359375 155.429688 200.394531 C 141.59375 195.890625 126.46875 180.769531 121 165.648438 C 119.710938 162.433594 116.171875 160.503906 112.632812 161.789062 C 109.089844 163.074219 107.484375 166.9375 108.769531 170.152344 Z M 108.769531 170.152344 " fill-opacity="1" fill-rule="nonzero"/><g fill="#000000" fill-opacity="1"><g transform="translate(89.093091, 333.849969)"><g><path d="M 1.734375 0 L 1.734375 -11.421875 L 5.875 -11.421875 C 6.644531 -11.421875 7.289062 -11.296875 7.8125 -11.046875 C 8.332031 -10.796875 8.722656 -10.4375 8.984375 -9.96875 C 9.242188 -9.507812 9.375 -8.96875 9.375 -8.34375 C 9.375 -7.632812 9.195312 -7.046875 8.84375 -6.578125 C 8.488281 -6.117188 7.9375 -5.773438 7.1875 -5.546875 L 7.1875 -5.390625 C 7.550781 -5.242188 7.847656 -5.015625 8.078125 -4.703125 C 8.316406 -4.390625 8.535156 -3.921875 8.734375 -3.296875 L 9.796875 0 L 8.40625 0 L 7.265625 -3.5 C 7.128906 -3.90625 6.972656 -4.222656 6.796875 -4.453125 C 6.617188 -4.691406 6.394531 -4.863281 6.125 -4.96875 C 5.851562 -5.070312 5.507812 -5.125 5.09375 -5.125 L 3.078125 -5.125 L 3.078125 0 Z M 5.84375 -6.265625 C 6.5625 -6.265625 7.09375 -6.429688 7.4375 -6.765625 C 7.789062 -7.097656 7.96875 -7.601562 7.96875 -8.28125 C 7.96875 -8.957031 7.789062 -9.457031 7.4375 -9.78125 C 7.09375 -10.113281 6.5625 -10.28125 5.84375 -10.28125 L 3.078125 -10.28125 L 3.078125 -6.265625 Z M 5.84375 -6.265625 "/></g></g></g><g fill="#000000" fill-opacity="1"><g transform="translate(99.668633, 333.849969)"><g><path d="M 3.078125 -5.390625 L 3.078125 -1.109375 L 8.890625 -1.109375 L 8.890625 0 L 1.734375 0 L 1.734375 -11.421875 L 8.765625 -11.421875 L 8.765625 -10.3125 L 3.078125 -10.3125 L 3.078125 -6.5 L 8.09375 -6.5 L 8.09375 -5.390625 Z M 3.078125 -5.390625 "/></g></g></g><g fill="#000000" fill-opacity="1"><g transform="translate(109.31472, 333.849969)"><g><path d="M 6.3125 0.171875 C 5.3125 0.171875 4.421875 -0.0546875 3.640625 -0.515625 C 2.859375 -0.984375 2.242188 -1.65625 1.796875 -2.53125 C 1.359375 -3.414062 1.140625 -4.476562 1.140625 -5.71875 C 1.140625 -6.945312 1.359375 -8.003906 1.796875 -8.890625 C 2.242188 -9.773438 2.859375 -10.445312 3.640625 -10.90625 C 4.421875 -11.363281 5.3125 -11.59375 6.3125 -11.59375 C 7.382812 -11.59375 8.273438 -11.390625 8.984375 -10.984375 C 9.691406 -10.578125 10.203125 -9.96875 10.515625 -9.15625 L 9.65625 -8.59375 L 9.453125 -8.59375 C 9.140625 -9.238281 8.734375 -9.695312 8.234375 -9.96875 C 7.734375 -10.25 7.09375 -10.390625 6.3125 -10.390625 C 5.59375 -10.390625 4.953125 -10.226562 4.390625 -9.90625 C 3.835938 -9.582031 3.394531 -9.070312 3.0625 -8.375 C 2.738281 -7.6875 2.578125 -6.800781 2.578125 -5.71875 C 2.578125 -4.632812 2.738281 -3.742188 3.0625 -3.046875 C 3.394531 -2.359375 3.835938 -1.851562 4.390625 -1.53125 C 4.953125 -1.207031 5.59375 -1.046875 6.3125 -1.046875 C 7.144531 -1.046875 7.820312 -1.234375 8.34375 -1.609375 C 8.875 -1.984375 9.265625 -2.585938 9.515625 -3.421875 L 9.71875 -3.421875 L 10.609375 -2.96875 C 10.335938 -1.957031 9.835938 -1.179688 9.109375 -0.640625 C 8.378906 -0.0976562 7.445312 0.171875 6.3125 0.171875 Z M 6.3125 0.171875 "/></g></g></g><g fill="#000000" fill-opacity="1"><g transform="translate(120.515109, 333.849969)"><g><path d="M 3.078125 0 L 1.734375 0 L 1.734375 -11.421875 L 3.078125 -11.421875 Z M 3.078125 0 "/></g></g></g><g fill="#000000" fill-opacity="1"><g transform="translate(125.318629, 333.849969)"><g><path d="M 5.8125 -11.421875 C 6.601562 -11.421875 7.28125 -11.28125 7.84375 -11 C 8.40625 -10.71875 8.832031 -10.316406 9.125 -9.796875 C 9.414062 -9.273438 9.5625 -8.660156 9.5625 -7.953125 C 9.5625 -7.242188 9.414062 -6.628906 9.125 -6.109375 C 8.832031 -5.585938 8.40625 -5.179688 7.84375 -4.890625 C 7.28125 -4.609375 6.601562 -4.46875 5.8125 -4.46875 L 3.078125 -4.46875 L 3.078125 0 L 1.734375 0 L 1.734375 -11.421875 Z M 5.78125 -5.625 C 7.363281 -5.625 8.15625 -6.398438 8.15625 -7.953125 C 8.15625 -9.503906 7.363281 -10.28125 5.78125 -10.28125 L 3.078125 -10.28125 L 3.078125 -5.625 Z M 5.78125 -5.625 "/></g></g></g><g fill="#000000" fill-opacity="1"><g transform="translate(135.730154, 333.849969)"><g><path d="M 3.078125 -5.390625 L 3.078125 -1.109375 L 8.890625 -1.109375 L 8.890625 0 L 1.734375 0 L 1.734375 -11.421875 L 8.765625 -11.421875 L 8.765625 -10.3125 L 3.078125 -10.3125 L 3.078125 -6.5 L 8.09375 -6.5 L 8.09375 -5.390625 Z M 3.078125 -5.390625 "/></g></g></g></svg>