<?xml version="1.0" encoding="UTF-8" standalone="no"?>
<!DOCTYPE svg PUBLIC "-//W3C//DTD SVG 1.1//EN" "http://www.w3.org/Graphics/SVG/1.1/DTD/svg11.dtd">
<svg width="100%" height="100%" viewBox="0 0 2000 2000" version="1.1" xmlns="http://www.w3.org/2000/svg" xmlns:xlink="http://www.w3.org/1999/xlink" xml:space="preserve" xmlns:serif="http://www.serif.com/" style="fill-rule:evenodd;clip-rule:evenodd;stroke-linejoin:round;stroke-miterlimit:2;">
    <g transform="matrix(58.5224,0,0,58.5224,64.0976,64.0398)">
        <path d="M29.707,28.293L21.45,20.035C23.097,18.059 23.999,15.567 23.999,12.995C23.999,6.963 19.035,1.999 13.002,1.999C10.085,1.999 7.284,3.159 5.223,5.223C3.158,7.285 1.997,10.086 1.997,13.004C1.997,19.037 6.961,24.001 12.993,24.001C15.566,24.001 18.06,23.097 20.036,21.449L28.293,29.707C28.479,29.887 28.729,29.988 28.988,29.988C29.536,29.988 29.988,29.536 29.988,28.988C29.988,28.729 29.887,28.479 29.707,28.293ZM4,13C4.001,8.064 8.063,4.003 12.999,4.003C17.935,4.003 21.997,8.065 21.997,13.001C21.997,17.937 17.936,21.999 13,22C12.981,22 12.961,22 12.942,22C8.036,22 4,17.964 4,13.058L4,13ZM20,13C19.996,9.162 16.838,6.004 13,6C12.451,6 12,6.451 12,7C12,7.549 12.451,8 13,8C15.742,8.003 17.997,10.258 18,13C18,13.549 18.451,14 19,14C19.549,14 20,13.549 20,13Z" style="fill-rule:nonzero;"/>
    </g>
</svg>
